<?xml version="1.0" encoding="UTF-8"?>
<svg xmlns="http://www.w3.org/2000/svg" viewBox="0 0 384 512">
  <g>
    <g>
      <path d="M224,0h-64C71.6,0,0,71.6,0,160v192c0,88.4,71.6,160,160,160h64c88.4,0,160-71.6,160-160v-192C384,71.6,312.4,0,224,0ZM352,352c0,70.7-57.3,128-128,128h-64c-70.7,0-128-57.3-128-128v-192c0-70.7,57.3-128,128-128h64c70.7,0,128,57.3,128,128v192Z" style="fill: #fff;"/>
      <path d="M208,112v64c0,8.8-7.2,16-16,16s-16-7.2-16-16v-64c0-8.8,7.2-16,16-16s16,7.2,16,16Z" style="fill: #fff;"/>
    </g>
  </g>
</svg>
