<?xml version="1.0" encoding="UTF-8"?>
<svg id="b" data-name="Layer 2" xmlns="http://www.w3.org/2000/svg" viewBox="0 0 512 922.17">
  <g id="c" data-name="Layer 3">
    <rect width="512" height="920" style="fill: #fff; opacity: 0;"/>
    <g>
      <path d="M506.56,721.8c0-.07-.02-.13-.02-.2,0-.06,0-.12,0-.19l-13.43-181.03c0-.06-.02-.13-.02-.19,0-.07,0-.13,0-.2-1.35-13.79-7.76-26.48-18.07-35.73-10.31-9.25-23.64-14.25-37.47-14.11-12.18.13-23.53,4.38-32.7,11.43-8.34-10.27-20.32-17.66-34.46-20.1-15.26-2.63-30.09,1-41.85,9.1-3.25-4.48-7.2-8.5-11.77-11.88-16.1-11.92-37.25-14.34-55.59-6.48l-.06-113.09s0-.01,0-.02c.02-19.49-10.45-37.65-27.32-47.4-16.89-9.76-37.87-9.76-54.76,0-16.88,9.76-27.34,27.92-27.33,47.41,0,0,0,0,0,.01v218.23c-7.12-.94-14.31-1.37-21.54-1.31-.02,0-.04,0-.05,0-.06,0-.12,0-.17,0h0s0,0,0,0c-18.75.19-36.51,8.4-48.74,22.53-12.22,14.13-17.8,32.85-15.3,51.36,0,0,0,.01,0,.02,10.74,79.63,51.44,151.34,114.6,201.93.1.08.21.15.31.23.08.06.15.13.23.19,1.51,1.11,3.12,4.62,3.12,8.92v43.95c0,9.39,7.61,17,17,17s17-7.61,17-17v-43.95c0-14.58-6.08-27.87-16.3-35.77-.04-.03-.08-.07-.12-.1-56.31-45.1-92.59-109-102.16-179.93,0,0,0,0,0,0-1.2-8.86,1.47-17.82,7.32-24.58,5.85-6.76,14.37-10.69,23.37-10.78h0c7.19-.07,14.36.5,21.42,1.69v24c0,.12-.02.25-.06.37,0,0,0,0,0,0-.43,1.36-1.67,2.61-3.33,3.35-8.57,3.84-12.4,13.89-8.57,22.46,2.83,6.31,9.03,10.06,15.53,10.06,2.32,0,4.68-.48,6.94-1.49,10.55-4.72,18.51-13.53,21.86-24.18,0,0,0-.01,0-.02,1.07-3.42,1.62-6.97,1.62-10.55v-276.6s0,0,0-.01,0-.01,0-.02c-.01-7.38,3.95-14.26,10.34-17.96,6.39-3.7,14.33-3.69,20.73,0,6.39,3.7,10.35,10.58,10.34,17.96,0,0,0,.01,0,.02s0,.01,0,.02l.08,162.21c0,.1.01.2.02.3,0,.31.02.62.05.93.02.26.04.52.07.78.04.31.09.61.14.91.05.26.09.51.15.77.06.29.14.57.22.85.07.26.14.52.23.77.09.26.19.52.29.78.1.26.2.52.31.77.11.25.23.48.35.72.13.25.25.5.39.75.13.23.27.45.41.68.15.24.3.48.46.71.15.22.32.43.48.64.17.22.34.44.51.65.18.21.37.41.55.61.18.19.36.39.55.57.2.2.42.38.63.57.19.17.39.34.59.5.23.18.46.35.69.52.21.15.41.3.63.44.24.16.49.3.74.45.22.13.45.26.68.38.25.13.51.25.77.37.25.11.49.23.74.33.25.1.51.19.77.28.27.09.54.19.82.27.25.07.51.14.77.2.29.07.59.14.89.19.26.05.52.08.79.12.3.04.61.08.91.11.1,0,.2.03.31.04.18.01.36,0,.55,0,.18,0,.36.03.55.03h0c.1,0,.2-.01.31-.02.31,0,.62-.03.92-.05.26-.02.52-.04.78-.07.31-.04.61-.09.92-.14.25-.04.51-.09.75-.14.3-.07.59-.15.88-.23.25-.07.49-.14.74-.22.28-.09.56-.2.83-.31.24-.09.48-.18.71-.29.27-.12.53-.25.79-.38.23-.11.45-.23.67-.35.26-.15.51-.3.76-.46.21-.13.41-.26.61-.4.25-.18.49-.36.74-.55.18-.14.37-.29.55-.44.24-.21.47-.42.7-.64.16-.15.32-.31.48-.47.23-.23.44-.48.66-.72.14-.16.29-.33.42-.5.2-.25.4-.52.59-.78.13-.18.26-.36.38-.54.18-.27.34-.54.5-.82.12-.2.23-.4.34-.61.14-.27.27-.55.4-.83.1-.23.21-.46.3-.69.11-.27.2-.54.3-.81.09-.26.18-.52.26-.79.08-.26.14-.52.2-.79.07-.29.14-.58.19-.87.05-.26.08-.52.12-.79.04-.3.08-.61.11-.91,0-.1.03-.2.04-.31.52-8.12,5.43-15.29,12.81-18.71,7.38-3.42,16.02-2.55,22.56,2.29,6.37,4.72,9.62,12.76,8.47,20.98-.01.1-.01.2-.03.31-.04.31-.06.62-.08.93-.02.26-.04.52-.04.78,0,.31,0,.61.01.92,0,.26.02.52.04.78.02.29.06.58.1.88.04.27.07.53.12.79.05.28.11.55.18.82.06.27.13.54.2.8.07.26.16.51.25.76.09.27.18.53.28.8.1.24.2.48.31.72.12.26.23.52.36.77.12.24.25.47.38.7.14.24.27.48.42.71.15.23.3.45.46.67.15.22.31.44.47.65.17.22.36.43.54.65.17.2.34.4.52.59.2.21.4.41.61.6.19.18.37.36.57.53.21.19.44.36.66.54.21.16.42.33.63.48.23.16.46.31.7.46.23.15.47.3.71.44.23.13.47.26.71.38.26.13.52.27.79.39.23.11.48.2.72.29.29.11.57.22.87.32.24.08.49.15.74.22.3.08.6.17.91.24.1.02.19.06.29.08.18.04.36.05.54.08.18.03.36.08.55.1.14.02.27.03.41.04.15.02.3.03.46.05.44.04.88.06,1.32.07.19,0,.37,0,.56-.01.41,0,.81-.02,1.21-.06.22-.02.44-.06.67-.09.31-.04.62-.08.92-.14.23-.04.45-.1.68-.16.29-.07.58-.13.87-.22.23-.07.45-.14.67-.22.28-.09.55-.19.83-.3.22-.09.44-.18.65-.28.26-.12.52-.24.78-.36.22-.11.43-.23.64-.34.24-.14.48-.28.72-.43.21-.13.42-.27.62-.41.22-.16.44-.32.66-.48.2-.15.4-.31.59-.47.21-.17.41-.36.61-.54.19-.17.37-.34.55-.52.2-.2.38-.4.57-.61.16-.18.33-.36.49-.55.2-.24.38-.49.56-.74.13-.17.26-.34.38-.52.28-.41.55-.84.79-1.28.01-.02.03-.04.04-.06.26-.47.49-.95.71-1.45.06-.13.1-.28.16-.41.15-.37.29-.74.42-1.12.06-.18.1-.37.16-.55.1-.34.19-.69.27-1.04.02-.07.04-.14.06-.21,2.49-12.08,13.95-19.89,26.1-17.8,11.58,2,19.55,12.28,18.79,23.82-.12.92-.21,1.84-.28,2.77,0,.1,0,.21,0,.31-.02.32-.02.64-.02.95,0,.26,0,.51,0,.77.01.31.04.62.07.93.03.26.05.51.09.76.04.29.1.59.16.88.05.26.1.52.17.78.07.27.15.54.23.81.08.26.16.53.25.79.09.25.19.5.29.75.11.26.22.52.34.78.11.24.23.47.36.7.13.25.26.5.41.74.14.23.28.45.43.67.15.23.31.46.47.69.16.22.33.43.5.64.17.21.34.42.52.62.18.21.38.41.57.61.18.19.37.38.56.55.21.19.42.38.64.56.2.17.4.34.6.49.23.17.46.34.69.5.22.15.44.3.66.44.24.15.48.28.73.42.24.13.48.27.73.39.24.12.49.23.74.34.27.12.53.23.81.33.24.09.49.17.74.25.29.09.58.18.88.26.25.07.51.12.77.18.3.06.6.13.91.17.11.02.21.04.31.06.3.04.61.07.91.09.05,0,.11.02.16.02.02,0,.04,0,.05,0,.42.03.84.05,1.25.05.54,0,1.07-.03,1.6-.08.14-.01.27-.04.4-.06.39-.05.77-.09,1.15-.17.2-.04.4-.09.6-.14.3-.07.61-.14.91-.22.22-.06.44-.14.66-.22.27-.09.53-.17.79-.27.23-.09.45-.19.67-.29.25-.11.49-.21.73-.33.22-.11.43-.23.64-.35.23-.13.47-.26.69-.4.2-.13.4-.26.6-.39.23-.15.45-.3.67-.47.19-.14.37-.29.55-.43.22-.18.43-.35.64-.54.17-.15.33-.31.49-.46.21-.2.41-.4.6-.61.15-.16.3-.33.44-.5.19-.22.37-.44.55-.67.14-.18.27-.36.4-.54.17-.23.33-.47.48-.71.12-.19.24-.39.36-.59.14-.24.28-.49.41-.74.11-.21.22-.43.32-.64.12-.25.22-.5.33-.75.1-.23.19-.47.27-.71.09-.25.17-.51.25-.76.08-.25.15-.5.22-.76.07-.26.12-.53.18-.79.05-.26.1-.51.14-.77.02-.1.04-.2.06-.3.1-.69.16-1.37.24-2.05,1.29-10.62,10.23-18.89,20.78-19.01,11.03-.1,20.22,8.08,21.33,19.09l13.39,180.43c2.06,40.55-9.92,79.34-32.08,103.79-8.24,8.47-13.63,19.53-15.19,31.26,0,.05,0,.11-.01.16-.04.3-.05.61-.07.92-.02.29-.04.57-.05.86,0,.06,0,.11,0,.17l-.33,44.22c-.07,9.39,7.48,17.06,16.87,17.13.04,0,.09,0,.13,0,9.33,0,16.93-7.53,17-16.87l.32-42.9c.74-4.31,2.81-8.35,5.9-11.44.1-.1.19-.22.29-.33.09-.1.2-.18.29-.28,28.57-31.5,43.47-78.35,40.88-128.56Z" style="fill: #fff;"/>
      <path d="M55.92,530.71c.2.15.4.3.61.44s.44.27.66.4c.2.12.4.24.6.35.22.12.45.22.68.33.21.1.42.21.64.3.22.09.45.17.68.25.23.08.46.17.7.24.23.07.46.12.69.18.24.06.48.13.72.18.27.05.54.09.81.12.21.03.42.07.64.09.49.05.98.07,1.48.07s.99-.03,1.48-.07c.23-.02.44-.06.67-.1.26-.04.52-.07.78-.12.26-.05.5-.12.75-.18.22-.06.45-.11.67-.17.25-.07.48-.17.72-.25.22-.08.44-.15.66-.24.23-.09.44-.2.66-.31.22-.11.45-.2.67-.32.21-.11.41-.24.62-.36.21-.13.43-.25.64-.39.23-.15.44-.32.66-.48.17-.13.35-.25.52-.39.38-.31.75-.65,1.1-1l45.44-45.44c5.86-5.86,5.86-15.35,0-21.21-5.86-5.86-15.35-5.86-21.21,0l-19.84,19.84v-228.72l19.84,19.84c2.93,2.93,6.77,4.39,10.61,4.39s7.68-1.46,10.61-4.39c5.86-5.86,5.86-15.36,0-21.21l-45.45-45.45s-.05-.05-.08-.07c-.32-.32-.66-.63-1.01-.92-.07-.06-.15-.11-.22-.17-.27-.22-.55-.42-.84-.62-.14-.09-.28-.19-.42-.28-.24-.15-.48-.29-.73-.43-.15-.08-.29-.17-.44-.25-.35-.18-.71-.35-1.08-.5,0,0-.02,0-.03-.01-.16-.07-.33-.12-.49-.18-.25-.09-.5-.18-.76-.26-.17-.05-.34-.1-.52-.15-.27-.08-.55-.14-.82-.2-.15-.03-.29-.07-.44-.09-.42-.08-.85-.14-1.27-.18-.04,0-.07,0-.11,0-.4-.04-.79-.05-1.19-.06-.13,0-.26,0-.39,0-.31,0-.63.02-.94.04-.14.01-.27.02-.41.03-.38.04-.76.09-1.14.16-.09.02-.18.03-.27.05-.37.07-.73.16-1.09.27-.16.05-.32.1-.48.15-.26.08-.51.17-.76.27-.16.06-.33.12-.49.19-.32.13-.63.28-.94.43-.14.07-.28.14-.42.22-.31.17-.62.35-.91.54-.13.08-.26.17-.39.26-.26.18-.52.37-.78.57-.1.08-.21.16-.31.25-.34.28-.67.57-.98.88l-45.95,45.45c-5.89,5.83-5.94,15.32-.12,21.21,5.82,5.89,15.32,5.94,21.21.12l20.4-20.18v229.27l-20.4-20.17c-5.89-5.83-15.39-5.77-21.21.12-5.83,5.89-5.77,15.39.12,21.21l45.95,45.45c.12.12.25.22.38.34.23.21.45.42.69.62.19.15.38.29.57.43Z" style="fill: #fff;"/>
    </g>
  </g>
</svg>